<svg xmlns="http://www.w3.org/2000/svg" xmlns:xlink="http://www.w3.org/1999/xlink" width="500" zoomAndPan="magnify" viewBox="0 0 375 374.999991" height="500" preserveAspectRatio="xMidYMid meet" version="1.0"><defs><g/><clipPath id="72507416ae"><path d="M 112.105469 37.5 L 262.855469 37.5 L 262.855469 256.5 L 112.105469 256.5 Z M 112.105469 37.5 " clip-rule="nonzero"/></clipPath></defs><g clip-path="url(#72507416ae)"><path fill="#2e186a" d="M 236.441406 130.445312 C 237.339844 130.445312 238.179688 129.996094 238.675781 129.246094 L 251.96875 109.0625 C 252.589844 109.203125 253.226562 109.289062 253.886719 109.289062 C 258.671875 109.289062 262.566406 105.402344 262.566406 100.625 C 262.566406 95.839844 258.671875 91.949219 253.886719 91.949219 C 249.105469 91.949219 245.207031 95.839844 245.207031 100.625 C 245.207031 102.804688 246.046875 104.777344 247.386719 106.304688 L 235 125.101562 L 205.882812 125.101562 L 205.882812 116.5 L 215.347656 96.800781 C 215.519531 96.4375 215.601562 96.042969 215.601562 95.640625 L 215.601562 89.804688 L 240.984375 82.273438 C 241.953125 81.984375 242.675781 81.171875 242.847656 80.175781 L 247.347656 54.71875 C 251.558594 54.128906 254.816406 50.539062 254.816406 46.171875 C 254.816406 41.390625 250.929688 37.5 246.140625 37.5 C 241.359375 37.5 237.464844 41.390625 237.464844 46.171875 C 237.464844 49.476562 239.347656 52.324219 242.085938 53.785156 L 237.875 77.621094 L 215.601562 84.230469 L 215.601562 83.492188 C 215.601562 82.015625 214.40625 80.820312 212.929688 80.820312 L 206.425781 80.820312 L 206.425781 68.644531 C 206.425781 68.101562 206.257812 67.574219 205.949219 67.128906 L 198.386719 56.160156 L 203.949219 42.355469 C 204.496094 40.988281 203.835938 39.429688 202.464844 38.878906 C 201.09375 38.328125 199.535156 38.996094 198.992188 40.363281 L 193.5625 53.824219 L 180.324219 53.824219 L 174.019531 40.234375 C 173.398438 38.894531 171.808594 38.3125 170.46875 38.933594 C 169.132812 39.554688 168.554688 41.144531 169.175781 42.480469 L 175.550781 56.234375 L 168.046875 67.128906 C 167.734375 67.570312 167.574219 68.097656 167.574219 68.640625 L 167.574219 80.824219 L 161.867188 80.824219 C 160.390625 80.824219 159.195312 82.015625 159.195312 83.492188 L 159.195312 84.234375 L 136.933594 77.625 L 132.722656 53.789062 C 135.453125 52.328125 137.335938 49.480469 137.335938 46.175781 C 137.335938 41.394531 133.441406 37.503906 128.667969 37.503906 C 123.878906 37.503906 119.984375 41.394531 119.984375 46.175781 C 119.984375 50.542969 123.246094 54.132812 127.453125 54.722656 L 131.953125 80.179688 C 132.125 81.175781 132.855469 81.988281 133.824219 82.277344 L 159.199219 89.808594 L 159.199219 95.644531 C 159.199219 96.046875 159.289062 96.441406 159.460938 96.800781 L 168.921875 116.503906 L 168.921875 125.105469 L 139.804688 125.105469 L 127.417969 106.304688 C 128.757812 104.78125 129.597656 102.804688 129.597656 100.625 C 129.597656 95.84375 125.707031 91.953125 120.917969 91.953125 C 116.132812 91.953125 112.242188 95.84375 112.242188 100.625 C 112.242188 105.40625 116.132812 109.292969 120.917969 109.292969 C 121.578125 109.292969 122.21875 109.203125 122.835938 109.0625 L 136.136719 129.25 C 136.625 130 137.464844 130.449219 138.367188 130.449219 L 168.921875 130.449219 L 168.921875 148.328125 L 142.695312 148.328125 C 141.71875 148.328125 140.828125 148.851562 140.355469 149.695312 L 128.089844 171.667969 C 127.703125 171.617188 127.320312 171.550781 126.925781 171.550781 C 122.136719 171.550781 118.246094 175.4375 118.246094 180.222656 C 118.246094 185 122.136719 188.886719 126.925781 188.886719 C 131.703125 188.886719 135.59375 185 135.59375 180.222656 C 135.59375 177.765625 134.5625 175.558594 132.921875 173.980469 L 144.257812 153.667969 L 168.921875 153.667969 L 168.921875 154.433594 L 150.871094 178.917969 C 150.53125 179.375 150.351562 179.925781 150.351562 180.5 L 150.351562 220.03125 C 150.351562 220.570312 150.511719 221.097656 150.820312 221.539062 L 173.953125 255.332031 C 174.445312 256.0625 175.273438 256.496094 176.15625 256.496094 L 197.839844 256.496094 C 198.726562 256.496094 199.550781 256.058594 200.050781 255.332031 L 223.183594 221.539062 C 223.484375 221.097656 223.648438 220.570312 223.648438 220.03125 L 223.648438 180.5 C 223.648438 179.949219 223.480469 179.410156 223.164062 178.960938 L 205.882812 154.464844 L 205.882812 153.664062 L 230.546875 153.664062 L 241.890625 173.976562 C 240.25 175.554688 239.210938 177.761719 239.210938 180.21875 C 239.210938 184.996094 243.101562 188.882812 247.886719 188.882812 C 252.667969 188.882812 256.558594 184.996094 256.558594 180.21875 C 256.558594 175.4375 252.667969 171.542969 247.886719 171.542969 C 247.484375 171.542969 247.105469 171.609375 246.722656 171.664062 L 234.449219 149.691406 C 233.976562 148.847656 233.085938 148.324219 232.117188 148.324219 L 205.882812 148.324219 L 205.882812 130.445312 Z M 253.886719 97.289062 C 255.722656 97.289062 257.21875 98.789062 257.21875 100.625 C 257.21875 102.457031 255.722656 103.949219 253.886719 103.949219 C 253.515625 103.949219 253.167969 103.851562 252.835938 103.738281 C 252.71875 103.628906 252.632812 103.492188 252.5 103.40625 C 252.242188 103.234375 251.960938 103.144531 251.679688 103.074219 C 251 102.464844 250.558594 101.605469 250.558594 100.625 C 250.558594 98.789062 252.050781 97.289062 253.886719 97.289062 Z M 246.144531 42.847656 C 247.984375 42.847656 249.476562 44.339844 249.476562 46.175781 C 249.476562 48.011719 247.984375 49.503906 246.144531 49.503906 C 244.304688 49.503906 242.816406 48.011719 242.816406 46.175781 C 242.816406 44.339844 244.304688 42.847656 246.144531 42.847656 Z M 125.335938 46.175781 C 125.335938 44.339844 126.828125 42.847656 128.667969 42.847656 C 130.5 42.847656 131.992188 44.335938 131.992188 46.175781 C 131.992188 48.011719 130.5 49.503906 128.667969 49.503906 C 126.828125 49.503906 125.335938 48.011719 125.335938 46.175781 Z M 117.585938 100.625 C 117.585938 98.789062 119.089844 97.292969 120.917969 97.292969 C 122.75 97.292969 124.25 98.789062 124.25 100.625 C 124.25 101.609375 123.804688 102.472656 123.117188 103.082031 C 122.835938 103.152344 122.5625 103.238281 122.308594 103.40625 C 122.167969 103.496094 122.082031 103.632812 121.96875 103.738281 C 121.636719 103.851562 121.289062 103.949219 120.917969 103.949219 C 119.085938 103.949219 117.585938 102.457031 117.585938 100.625 Z M 126.925781 183.542969 C 125.082031 183.542969 123.59375 182.050781 123.59375 180.21875 C 123.59375 178.382812 125.085938 176.886719 126.925781 176.886719 C 128.757812 176.886719 130.25 178.382812 130.25 180.21875 C 130.25 182.050781 128.757812 183.542969 126.925781 183.542969 Z M 251.210938 180.21875 C 251.210938 182.050781 249.71875 183.542969 247.886719 183.542969 C 246.046875 183.542969 244.554688 182.050781 244.554688 180.21875 C 244.554688 178.382812 246.046875 176.886719 247.886719 176.886719 C 249.71875 176.886719 251.210938 178.382812 251.210938 180.21875 Z M 174.265625 118.566406 L 200.539062 118.566406 L 200.539062 152.640625 L 174.265625 152.640625 Z M 172.921875 69.472656 L 180.027344 59.164062 L 193.96875 59.164062 L 201.082031 69.472656 L 201.082031 80.824219 L 172.921875 80.824219 Z M 164.546875 86.164062 L 210.257812 86.164062 L 210.257812 95.039062 L 201.53125 113.222656 L 173.277344 113.222656 L 164.546875 95.039062 Z M 218.308594 219.207031 L 196.4375 251.15625 L 177.566406 251.15625 L 155.695312 219.207031 L 155.695312 181.375 L 172.945312 157.980469 L 201.820312 157.980469 L 218.304688 181.34375 L 218.304688 219.207031 Z M 218.308594 219.207031 " fill-opacity="1" fill-rule="nonzero"/></g><g fill="#2e186a" fill-opacity="1"><g transform="translate(40.266546, 329.159597)"><g><path d="M 3.84375 -52.796875 L 20.21875 -52.796875 C 25.164062 -52.796875 29.113281 -51.738281 32.0625 -49.625 C 35.007812 -47.519531 36.484375 -44.097656 36.484375 -39.359375 C 36.484375 -34.066406 34.285156 -30.289062 29.890625 -28.03125 C 37.398438 -26.707031 41.15625 -22.269531 41.15625 -14.71875 C 41.15625 -10.28125 39.617188 -6.71875 36.546875 -4.03125 C 33.472656 -1.34375 29.25 0 23.875 0 L 3.84375 0 Z M 15.875 -32.125 L 16.828125 -32.125 C 19.515625 -32.125 21.519531 -32.59375 22.84375 -33.53125 C 24.164062 -34.46875 24.828125 -36.003906 24.828125 -38.140625 C 24.828125 -41.722656 22.160156 -43.515625 16.828125 -43.515625 L 15.875 -43.515625 Z M 15.875 -9.28125 L 19.640625 -9.28125 C 25.535156 -9.28125 28.484375 -11.242188 28.484375 -15.171875 C 28.484375 -17.515625 27.742188 -19.195312 26.265625 -20.21875 C 24.796875 -21.25 22.585938 -21.765625 19.640625 -21.765625 L 15.875 -21.765625 Z M 15.875 -9.28125 "/></g></g></g><g fill="#2e186a" fill-opacity="1"><g transform="translate(82.887935, 329.159597)"><g><path d="M 3.84375 0 L 3.84375 -55.046875 L 15.171875 -55.046875 L 15.171875 0 Z M 3.84375 0 "/></g></g></g><g fill="#2e186a" fill-opacity="1"><g transform="translate(101.894773, 329.159597)"><g><path d="M 6.9375 -3.90625 C 3.289062 -7.144531 1.46875 -11.300781 1.46875 -16.375 C 1.46875 -21.457031 3.363281 -25.628906 7.15625 -28.890625 C 10.957031 -32.160156 15.65625 -33.796875 21.25 -33.796875 C 26.75 -33.796875 31.382812 -32.148438 35.15625 -28.859375 C 38.9375 -25.578125 40.828125 -21.414062 40.828125 -16.375 C 40.828125 -11.34375 38.984375 -7.195312 35.296875 -3.9375 C 31.609375 -0.675781 26.925781 0.953125 21.25 0.953125 C 15.363281 0.953125 10.59375 -0.664062 6.9375 -3.90625 Z M 15.703125 -21.953125 C 14.234375 -20.503906 13.5 -18.644531 13.5 -16.375 C 13.5 -14.113281 14.203125 -12.269531 15.609375 -10.84375 C 17.023438 -9.414062 18.882812 -8.703125 21.1875 -8.703125 C 23.40625 -8.703125 25.226562 -9.425781 26.65625 -10.875 C 28.082031 -12.332031 28.796875 -14.171875 28.796875 -16.390625 C 28.796875 -18.648438 28.0625 -20.503906 26.59375 -21.953125 C 25.125 -23.398438 23.320312 -24.125 21.1875 -24.125 C 19.007812 -24.125 17.179688 -23.398438 15.703125 -21.953125 Z M 15.703125 -21.953125 "/></g></g></g><g fill="#2e186a" fill-opacity="1"><g transform="translate(144.196174, 329.159597)"><g><path d="M 21.3125 -24.515625 C 19.175781 -24.515625 17.335938 -23.722656 15.796875 -22.140625 C 14.265625 -20.566406 13.5 -18.671875 13.5 -16.453125 C 13.5 -14.191406 14.265625 -12.269531 15.796875 -10.6875 C 17.335938 -9.101562 19.175781 -8.3125 21.3125 -8.3125 C 22.332031 -8.3125 23.300781 -8.441406 24.21875 -8.703125 C 25.132812 -8.960938 25.804688 -9.21875 26.234375 -9.46875 L 26.8125 -9.859375 L 30.65625 -1.984375 C 30.351562 -1.765625 29.9375 -1.492188 29.40625 -1.171875 C 28.875 -0.859375 27.65625 -0.425781 25.75 0.125 C 23.851562 0.675781 21.816406 0.953125 19.640625 0.953125 C 14.828125 0.953125 10.59375 -0.738281 6.9375 -4.125 C 3.289062 -7.519531 1.46875 -11.582031 1.46875 -16.3125 C 1.46875 -21.09375 3.289062 -25.203125 6.9375 -28.640625 C 10.59375 -32.078125 14.828125 -33.796875 19.640625 -33.796875 C 21.816406 -33.796875 23.820312 -33.535156 25.65625 -33.015625 C 27.5 -32.503906 28.800781 -31.992188 29.5625 -31.484375 L 30.65625 -30.71875 L 26.8125 -22.96875 C 25.40625 -24 23.570312 -24.515625 21.3125 -24.515625 Z M 21.3125 -24.515625 "/></g></g></g><g fill="#2e186a" fill-opacity="1"><g transform="translate(175.618249, 329.159597)"><g><path d="M 41.34375 -32.828125 L 25.734375 -17.15625 L 42.875 0 L 28.28125 0 L 15.171875 -13.125 L 15.171875 0 L 3.84375 0 L 3.84375 -55.046875 L 15.171875 -55.046875 L 15.171875 -21.375 L 26.625 -32.828125 Z M 41.34375 -32.828125 "/></g></g></g><g fill="#2e186a" fill-opacity="1"><g transform="translate(216.959707, 329.159597)"><g><path d="M 30.65625 -52.796875 L 51.96875 0 L 39.046875 0 L 35.140625 -10.5625 L 15.046875 -10.5625 L 11.140625 0 L -1.796875 0 L 19.515625 -52.796875 Z M 31.046875 -21.125 L 25.15625 -36.484375 L 25.03125 -36.484375 L 19.140625 -21.125 Z M 31.046875 -21.125 "/></g></g></g><g fill="#2e186a" fill-opacity="1"><g transform="translate(267.132628, 329.159597)"><g><path d="M 3.84375 0 L 3.84375 -32.828125 L 15.171875 -32.828125 L 15.171875 -29.375 L 15.296875 -29.375 C 18.242188 -32.320312 21.378906 -33.796875 24.703125 -33.796875 C 26.328125 -33.796875 27.9375 -33.582031 29.53125 -33.15625 C 31.132812 -32.726562 32.671875 -32.066406 34.140625 -31.171875 C 35.617188 -30.273438 36.816406 -29.003906 37.734375 -27.359375 C 38.648438 -25.710938 39.109375 -23.800781 39.109375 -21.625 L 39.109375 0 L 27.78125 0 L 27.78125 -18.5625 C 27.78125 -20.269531 27.234375 -21.757812 26.140625 -23.03125 C 25.054688 -24.3125 23.640625 -24.953125 21.890625 -24.953125 C 20.179688 -24.953125 18.632812 -24.289062 17.25 -22.96875 C 15.863281 -21.644531 15.171875 -20.175781 15.171875 -18.5625 L 15.171875 0 Z M 3.84375 0 "/></g></g></g><g fill="#2e186a" fill-opacity="1"><g transform="translate(309.43404, 329.159597)"><g><path d="M 5.765625 -32.828125 L 5.765625 -45.0625 L 17.09375 -45.0625 L 17.09375 -32.828125 L 24 -32.828125 L 24 -24.1875 L 17.09375 -24.1875 L 17.09375 -13.765625 C 17.09375 -10.734375 17.941406 -9.21875 19.640625 -9.21875 C 20.066406 -9.21875 20.515625 -9.300781 20.984375 -9.46875 C 21.460938 -9.644531 21.828125 -9.816406 22.078125 -9.984375 L 22.46875 -10.234375 L 25.28125 -1.09375 C 22.84375 0.269531 20.066406 0.953125 16.953125 0.953125 C 14.828125 0.953125 12.992188 0.582031 11.453125 -0.15625 C 9.921875 -0.90625 8.757812 -1.910156 7.96875 -3.171875 C 7.175781 -4.429688 6.609375 -5.753906 6.265625 -7.140625 C 5.929688 -8.523438 5.765625 -10.003906 5.765625 -11.578125 L 5.765625 -24.1875 L 1.03125 -24.1875 L 1.03125 -32.828125 Z M 5.765625 -32.828125 "/></g></g></g></svg>