<svg xmlns="http://www.w3.org/2000/svg" xmlns:xlink="http://www.w3.org/1999/xlink" width="500" zoomAndPan="magnify" viewBox="0 0 375 225" height="300" preserveAspectRatio="xMidYMid meet" version="1.0"><defs><g/><clipPath id="c3b7d19c78"><path d="M 17.304688 51.058594 L 102 51.058594 L 102 174.058594 L 17.304688 174.058594 Z M 17.304688 51.058594 " clip-rule="nonzero"/></clipPath></defs><g clip-path="url(#c3b7d19c78)"><path fill="#2e186a" d="M 87.203125 103.261719 C 87.707031 103.261719 88.179688 103.011719 88.457031 102.589844 L 95.933594 91.253906 C 96.28125 91.332031 96.640625 91.382812 97.011719 91.382812 C 99.699219 91.382812 101.890625 89.199219 101.890625 86.511719 C 101.890625 83.828125 99.699219 81.640625 97.011719 81.640625 C 94.324219 81.640625 92.132812 83.828125 92.132812 86.511719 C 92.132812 87.738281 92.605469 88.847656 93.355469 89.703125 L 86.394531 100.261719 L 70.023438 100.261719 L 70.023438 95.429688 L 75.34375 84.367188 C 75.441406 84.164062 75.488281 83.941406 75.488281 83.714844 L 75.488281 80.4375 L 89.757812 76.207031 C 90.300781 76.042969 90.707031 75.589844 90.804688 75.027344 L 93.335938 60.730469 C 95.703125 60.398438 97.535156 58.382812 97.535156 55.929688 C 97.535156 53.246094 95.347656 51.0625 92.65625 51.0625 C 89.96875 51.0625 87.777344 53.246094 87.777344 55.929688 C 87.777344 57.789062 88.839844 59.386719 90.375 60.207031 L 88.007812 73.59375 L 75.488281 77.308594 L 75.488281 76.890625 C 75.488281 76.0625 74.816406 75.390625 73.984375 75.390625 L 70.328125 75.390625 L 70.328125 68.550781 C 70.328125 68.25 70.234375 67.953125 70.0625 67.703125 L 65.8125 61.539062 L 68.9375 53.785156 C 69.246094 53.019531 68.875 52.144531 68.101562 51.835938 C 67.332031 51.527344 66.457031 51.898438 66.148438 52.667969 L 63.097656 60.226562 L 55.65625 60.226562 L 52.109375 52.59375 C 51.761719 51.84375 50.867188 51.515625 50.113281 51.867188 C 49.363281 52.214844 49.039062 53.105469 49.386719 53.859375 L 52.972656 61.582031 L 48.753906 67.699219 C 48.578125 67.949219 48.488281 68.246094 48.488281 68.550781 L 48.488281 75.390625 L 45.28125 75.390625 C 44.449219 75.390625 43.777344 76.0625 43.777344 76.890625 L 43.777344 77.308594 L 31.261719 73.597656 L 28.894531 60.210938 C 30.429688 59.390625 31.488281 57.789062 31.488281 55.933594 C 31.488281 53.246094 29.296875 51.0625 26.613281 51.0625 C 23.921875 51.0625 21.734375 53.246094 21.734375 55.933594 C 21.734375 58.386719 23.566406 60.402344 25.933594 60.734375 L 28.460938 75.03125 C 28.558594 75.589844 28.96875 76.046875 29.511719 76.207031 L 43.78125 80.4375 L 43.78125 83.714844 C 43.78125 83.941406 43.828125 84.164062 43.925781 84.367188 L 49.242188 95.433594 L 49.242188 100.261719 L 32.875 100.261719 L 25.910156 89.707031 C 26.664062 88.847656 27.136719 87.738281 27.136719 86.515625 C 27.136719 83.828125 24.949219 81.644531 22.257812 81.644531 C 19.566406 81.644531 17.382812 83.828125 17.382812 86.515625 C 17.382812 89.199219 19.566406 91.382812 22.257812 91.382812 C 22.628906 91.382812 22.988281 91.332031 23.335938 91.253906 L 30.816406 102.589844 C 31.085938 103.011719 31.558594 103.265625 32.066406 103.265625 L 49.246094 103.265625 L 49.246094 113.308594 L 34.5 113.308594 C 33.953125 113.308594 33.453125 113.601562 33.183594 114.074219 L 26.289062 126.414062 C 26.074219 126.386719 25.859375 126.347656 25.632812 126.347656 C 22.941406 126.347656 20.757812 128.53125 20.757812 131.21875 C 20.757812 133.902344 22.941406 136.085938 25.632812 136.085938 C 28.320312 136.085938 30.507812 133.902344 30.507812 131.21875 C 30.507812 129.839844 29.929688 128.601562 29.007812 127.714844 L 35.378906 116.304688 L 49.246094 116.304688 L 49.246094 116.738281 L 39.097656 130.484375 C 38.90625 130.742188 38.804688 131.054688 38.804688 131.375 L 38.804688 153.578125 C 38.804688 153.882812 38.894531 154.175781 39.066406 154.425781 L 52.074219 173.40625 C 52.351562 173.8125 52.816406 174.058594 53.3125 174.058594 L 65.503906 174.058594 C 66 174.058594 66.464844 173.8125 66.746094 173.40625 L 79.75 154.425781 C 79.917969 154.175781 80.011719 153.882812 80.011719 153.578125 L 80.011719 131.375 C 80.011719 131.066406 79.917969 130.765625 79.738281 130.511719 L 70.023438 116.753906 L 70.023438 116.304688 L 83.890625 116.304688 L 90.265625 127.710938 C 89.34375 128.597656 88.761719 129.835938 88.761719 131.21875 C 88.761719 133.902344 90.945312 136.082031 93.640625 136.082031 C 96.324219 136.082031 98.511719 133.902344 98.511719 131.21875 C 98.511719 128.53125 96.324219 126.347656 93.640625 126.347656 C 93.410156 126.347656 93.199219 126.382812 92.984375 126.414062 L 86.082031 114.074219 C 85.816406 113.597656 85.316406 113.304688 84.773438 113.304688 L 70.023438 113.304688 L 70.023438 103.261719 Z M 97.011719 84.640625 C 98.042969 84.640625 98.882812 85.484375 98.882812 86.511719 C 98.882812 87.542969 98.042969 88.382812 97.011719 88.382812 C 96.800781 88.382812 96.605469 88.324219 96.417969 88.261719 C 96.355469 88.203125 96.308594 88.125 96.230469 88.078125 C 96.085938 87.980469 95.929688 87.929688 95.769531 87.890625 C 95.386719 87.546875 95.140625 87.066406 95.140625 86.515625 C 95.140625 85.484375 95.980469 84.640625 97.011719 84.640625 Z M 92.660156 54.0625 C 93.691406 54.0625 94.53125 54.902344 94.53125 55.933594 C 94.53125 56.964844 93.691406 57.804688 92.660156 57.804688 C 91.625 57.804688 90.789062 56.964844 90.789062 55.933594 C 90.789062 54.902344 91.625 54.0625 92.660156 54.0625 Z M 24.742188 55.933594 C 24.742188 54.902344 25.582031 54.0625 26.613281 54.0625 C 27.644531 54.0625 28.484375 54.898438 28.484375 55.933594 C 28.484375 56.964844 27.644531 57.800781 26.613281 57.800781 C 25.582031 57.800781 24.742188 56.964844 24.742188 55.933594 Z M 20.386719 86.515625 C 20.386719 85.484375 21.230469 84.640625 22.257812 84.640625 C 23.289062 84.640625 24.132812 85.484375 24.132812 86.515625 C 24.132812 87.066406 23.878906 87.550781 23.496094 87.894531 C 23.335938 87.933594 23.183594 87.980469 23.039062 88.078125 C 22.960938 88.125 22.914062 88.203125 22.847656 88.261719 C 22.660156 88.324219 22.464844 88.382812 22.257812 88.382812 C 21.230469 88.382812 20.386719 87.542969 20.386719 86.515625 Z M 25.632812 133.082031 C 24.601562 133.082031 23.761719 132.246094 23.761719 131.21875 C 23.761719 130.1875 24.601562 129.347656 25.632812 129.347656 C 26.664062 129.347656 27.503906 130.1875 27.503906 131.21875 C 27.503906 132.246094 26.664062 133.082031 25.632812 133.082031 Z M 95.507812 131.21875 C 95.507812 132.246094 94.667969 133.082031 93.636719 133.082031 C 92.601562 133.082031 91.765625 132.246094 91.765625 131.21875 C 91.765625 130.1875 92.605469 129.347656 93.636719 129.347656 C 94.667969 129.347656 95.507812 130.1875 95.507812 131.21875 Z M 52.25 96.589844 L 67.019531 96.589844 L 67.019531 115.726562 L 52.25 115.726562 Z M 51.492188 69.019531 L 55.488281 63.230469 L 63.328125 63.230469 L 67.324219 69.019531 L 67.324219 75.394531 L 51.492188 75.394531 Z M 46.785156 78.394531 L 72.484375 78.394531 L 72.484375 83.375 L 67.578125 93.589844 L 51.695312 93.589844 L 46.785156 83.375 Z M 77.007812 153.113281 L 64.714844 171.058594 L 54.105469 171.058594 L 41.808594 153.113281 L 41.808594 131.867188 L 51.507812 118.726562 L 67.738281 118.726562 L 77.007812 131.851562 Z M 77.007812 153.113281 " fill-opacity="1" fill-rule="nonzero"/></g><g fill="#2e186a" fill-opacity="1"><g transform="translate(117.445057, 126.294517)"><g><path d="M 3 -41.328125 L 15.828125 -41.328125 C 19.703125 -41.328125 22.789062 -40.5 25.09375 -38.84375 C 27.394531 -37.195312 28.546875 -34.519531 28.546875 -30.8125 C 28.546875 -26.664062 26.828125 -23.707031 23.390625 -21.9375 C 29.265625 -20.90625 32.203125 -17.429688 32.203125 -11.515625 C 32.203125 -8.046875 31 -5.257812 28.59375 -3.15625 C 26.195312 -1.050781 22.894531 0 18.6875 0 L 3 0 Z M 12.421875 -25.140625 L 13.171875 -25.140625 C 15.273438 -25.140625 16.84375 -25.503906 17.875 -26.234375 C 18.914062 -26.972656 19.4375 -28.179688 19.4375 -29.859375 C 19.4375 -32.660156 17.347656 -34.0625 13.171875 -34.0625 L 12.421875 -34.0625 Z M 12.421875 -7.265625 L 15.375 -7.265625 C 19.988281 -7.265625 22.296875 -8.800781 22.296875 -11.875 C 22.296875 -13.707031 21.71875 -15.023438 20.5625 -15.828125 C 19.40625 -16.628906 17.675781 -17.03125 15.375 -17.03125 L 12.421875 -17.03125 Z M 12.421875 -7.265625 "/></g></g></g><g fill="#2e186a" fill-opacity="1"><g transform="translate(150.80338, 126.294517)"><g><path d="M 3 0 L 3 -43.078125 L 11.875 -43.078125 L 11.875 0 Z M 3 0 "/></g></g></g><g fill="#2e186a" fill-opacity="1"><g transform="translate(165.679391, 126.294517)"><g><path d="M 5.4375 -3.046875 C 2.582031 -5.585938 1.15625 -8.84375 1.15625 -12.8125 C 1.15625 -16.789062 2.640625 -20.054688 5.609375 -22.609375 C 8.578125 -25.171875 12.25 -26.453125 16.625 -26.453125 C 20.9375 -26.453125 24.566406 -25.164062 27.515625 -22.59375 C 30.472656 -20.019531 31.953125 -16.757812 31.953125 -12.8125 C 31.953125 -8.875 30.507812 -5.628906 27.625 -3.078125 C 24.738281 -0.523438 21.070312 0.75 16.625 0.75 C 12.019531 0.75 8.289062 -0.515625 5.4375 -3.046875 Z M 12.296875 -17.1875 C 11.140625 -16.050781 10.5625 -14.597656 10.5625 -12.828125 C 10.5625 -11.054688 11.113281 -9.609375 12.21875 -8.484375 C 13.320312 -7.367188 14.773438 -6.8125 16.578125 -6.8125 C 18.316406 -6.8125 19.742188 -7.378906 20.859375 -8.515625 C 21.984375 -9.648438 22.546875 -11.085938 22.546875 -12.828125 C 22.546875 -14.597656 21.96875 -16.050781 20.8125 -17.1875 C 19.65625 -18.320312 18.242188 -18.890625 16.578125 -18.890625 C 14.878906 -18.890625 13.453125 -18.320312 12.296875 -17.1875 Z M 12.296875 -17.1875 "/></g></g></g><g fill="#2e186a" fill-opacity="1"><g transform="translate(198.78727, 126.294517)"><g><path d="M 16.6875 -19.1875 C 15.007812 -19.1875 13.566406 -18.566406 12.359375 -17.328125 C 11.160156 -16.097656 10.5625 -14.613281 10.5625 -12.875 C 10.5625 -11.101562 11.160156 -9.597656 12.359375 -8.359375 C 13.566406 -7.128906 15.007812 -6.515625 16.6875 -6.515625 C 17.488281 -6.515625 18.242188 -6.613281 18.953125 -6.8125 C 19.671875 -7.007812 20.195312 -7.207031 20.53125 -7.40625 L 20.984375 -7.71875 L 24 -1.546875 C 23.757812 -1.378906 23.429688 -1.171875 23.015625 -0.921875 C 22.597656 -0.671875 21.644531 -0.332031 20.15625 0.09375 C 18.675781 0.53125 17.082031 0.75 15.375 0.75 C 11.601562 0.75 8.289062 -0.578125 5.4375 -3.234375 C 2.582031 -5.890625 1.15625 -9.070312 1.15625 -12.78125 C 1.15625 -16.519531 2.582031 -19.734375 5.4375 -22.421875 C 8.289062 -25.109375 11.601562 -26.453125 15.375 -26.453125 C 17.082031 -26.453125 18.648438 -26.25 20.078125 -25.84375 C 21.515625 -25.445312 22.535156 -25.046875 23.140625 -24.640625 L 24 -24.046875 L 20.984375 -17.984375 C 19.890625 -18.785156 18.457031 -19.1875 16.6875 -19.1875 Z M 16.6875 -19.1875 "/></g></g></g><g fill="#2e186a" fill-opacity="1"><g transform="translate(223.380268, 126.294517)"><g><path d="M 32.359375 -25.703125 L 20.140625 -13.421875 L 33.5625 0 L 22.140625 0 L 11.875 -10.265625 L 11.875 0 L 3 0 L 3 -43.078125 L 11.875 -43.078125 L 11.875 -16.734375 L 20.84375 -25.703125 Z M 32.359375 -25.703125 "/></g></g></g><g fill="#2e186a" fill-opacity="1"><g transform="translate(255.736832, 126.294517)"><g><path d="M 24 -41.328125 L 40.671875 0 L 30.5625 0 L 27.5 -8.265625 L 11.765625 -8.265625 L 8.71875 0 L -1.40625 0 L 15.28125 -41.328125 Z M 24.296875 -16.53125 L 19.6875 -28.546875 L 19.59375 -28.546875 L 14.984375 -16.53125 Z M 24.296875 -16.53125 "/></g></g></g><g fill="#2e186a" fill-opacity="1"><g transform="translate(295.005485, 126.294517)"><g><path d="M 3 0 L 3 -25.703125 L 11.875 -25.703125 L 11.875 -23 L 11.96875 -23 C 14.269531 -25.300781 16.726562 -26.453125 19.34375 -26.453125 C 20.601562 -26.453125 21.859375 -26.285156 23.109375 -25.953125 C 24.367188 -25.617188 25.570312 -25.097656 26.71875 -24.390625 C 27.875 -23.691406 28.8125 -22.695312 29.53125 -21.40625 C 30.25 -20.125 30.609375 -18.632812 30.609375 -16.9375 L 30.609375 0 L 21.734375 0 L 21.734375 -14.53125 C 21.734375 -15.863281 21.304688 -17.03125 20.453125 -18.03125 C 19.609375 -19.03125 18.5 -19.53125 17.125 -19.53125 C 15.789062 -19.53125 14.582031 -19.015625 13.5 -17.984375 C 12.414062 -16.953125 11.875 -15.800781 11.875 -14.53125 L 11.875 0 Z M 3 0 "/></g></g></g><g fill="#2e186a" fill-opacity="1"><g transform="translate(328.113372, 126.294517)"><g><path d="M 4.515625 -25.703125 L 4.515625 -35.265625 L 13.375 -35.265625 L 13.375 -25.703125 L 18.78125 -25.703125 L 18.78125 -18.9375 L 13.375 -18.9375 L 13.375 -10.765625 C 13.375 -8.398438 14.039062 -7.21875 15.375 -7.21875 C 15.707031 -7.21875 16.054688 -7.28125 16.421875 -7.40625 C 16.796875 -7.539062 17.082031 -7.675781 17.28125 -7.8125 L 17.578125 -8.015625 L 19.78125 -0.859375 C 17.882812 0.210938 15.71875 0.75 13.28125 0.75 C 11.601562 0.75 10.160156 0.457031 8.953125 -0.125 C 7.753906 -0.707031 6.847656 -1.488281 6.234375 -2.46875 C 5.617188 -3.457031 5.175781 -4.492188 4.90625 -5.578125 C 4.644531 -6.671875 4.515625 -7.832031 4.515625 -9.0625 L 4.515625 -18.9375 L 0.796875 -18.9375 L 0.796875 -25.703125 Z M 4.515625 -25.703125 "/></g></g></g></svg>