<svg xmlns="http://www.w3.org/2000/svg" xmlns:xlink="http://www.w3.org/1999/xlink" width="500" zoomAndPan="magnify" viewBox="0 0 375 374.999991" height="500" preserveAspectRatio="xMidYMid meet" version="1.0"><defs><g/><clipPath id="14b56bc2b9"><path d="M 120.328125 51.921875 L 254.578125 51.921875 L 254.578125 246.921875 L 120.328125 246.921875 Z M 120.328125 51.921875 " clip-rule="nonzero"/></clipPath></defs><g clip-path="url(#14b56bc2b9)"><path fill="#5e17eb" d="M 231.058594 134.683594 C 231.859375 134.683594 232.605469 134.28125 233.046875 133.613281 L 244.886719 115.640625 C 245.441406 115.769531 246.007812 115.847656 246.59375 115.847656 C 250.855469 115.847656 254.328125 112.382812 254.328125 108.128906 C 254.328125 103.867188 250.855469 100.40625 246.59375 100.40625 C 242.335938 100.40625 238.867188 103.867188 238.867188 108.128906 C 238.867188 110.070312 239.613281 111.828125 240.804688 113.1875 L 229.777344 129.925781 L 203.84375 129.925781 L 203.84375 122.265625 L 212.273438 104.722656 C 212.425781 104.402344 212.5 104.050781 212.5 103.691406 L 212.5 98.496094 L 235.105469 91.789062 C 235.964844 91.53125 236.613281 90.808594 236.765625 89.921875 L 240.769531 67.257812 C 244.519531 66.730469 247.425781 63.535156 247.425781 59.644531 C 247.425781 55.386719 243.960938 51.925781 239.699219 51.925781 C 235.441406 51.925781 231.96875 55.386719 231.96875 59.644531 C 231.96875 62.585938 233.648438 65.125 236.085938 66.425781 L 232.335938 87.648438 L 212.496094 93.53125 L 212.496094 92.875 C 212.496094 91.558594 211.4375 90.496094 210.117188 90.496094 L 204.324219 90.496094 L 204.324219 79.652344 C 204.324219 79.171875 204.179688 78.703125 203.902344 78.304688 L 197.167969 68.539062 L 202.121094 56.246094 C 202.609375 55.027344 202.019531 53.640625 200.796875 53.152344 C 199.578125 52.660156 198.191406 53.253906 197.707031 54.472656 L 192.871094 66.457031 L 181.082031 66.457031 L 175.464844 54.355469 C 174.914062 53.164062 173.496094 52.648438 172.304688 53.199219 C 171.113281 53.753906 170.597656 55.167969 171.152344 56.359375 L 176.828125 68.605469 L 170.144531 78.304688 C 169.867188 78.699219 169.722656 79.167969 169.722656 79.652344 L 169.722656 90.496094 L 164.644531 90.496094 C 163.328125 90.496094 162.265625 91.5625 162.265625 92.875 L 162.265625 93.535156 L 142.4375 87.648438 L 138.6875 66.429688 C 141.117188 65.128906 142.796875 62.589844 142.796875 59.648438 C 142.796875 55.390625 139.328125 51.925781 135.074219 51.925781 C 130.8125 51.925781 127.339844 55.390625 127.339844 59.648438 C 127.339844 63.539062 130.246094 66.730469 133.996094 67.257812 L 138 89.925781 C 138.15625 90.8125 138.804688 91.535156 139.667969 91.792969 L 162.269531 98.496094 L 162.269531 103.695312 C 162.269531 104.050781 162.347656 104.40625 162.5 104.726562 L 170.925781 122.269531 L 170.925781 129.925781 L 144.992188 129.925781 L 133.960938 113.1875 C 135.15625 111.832031 135.902344 110.074219 135.902344 108.132812 C 135.902344 103.871094 132.4375 100.40625 128.175781 100.40625 C 123.914062 100.40625 120.449219 103.871094 120.449219 108.132812 C 120.449219 112.386719 123.914062 115.847656 128.175781 115.847656 C 128.761719 115.847656 129.332031 115.769531 129.878906 115.644531 L 141.730469 133.617188 C 142.160156 134.285156 142.910156 134.6875 143.714844 134.6875 L 170.925781 134.6875 L 170.925781 150.605469 L 147.566406 150.605469 C 146.699219 150.605469 145.90625 151.074219 145.484375 151.824219 L 134.5625 171.386719 C 134.21875 171.339844 133.875 171.28125 133.523438 171.28125 C 129.257812 171.28125 125.796875 174.746094 125.796875 179.007812 C 125.796875 183.257812 129.257812 186.71875 133.523438 186.71875 C 137.78125 186.71875 141.242188 183.257812 141.242188 179.007812 C 141.242188 176.816406 140.324219 174.851562 138.863281 173.445312 L 148.960938 155.363281 L 170.925781 155.363281 L 170.925781 156.042969 L 154.851562 177.839844 C 154.546875 178.25 154.386719 178.742188 154.386719 179.25 L 154.386719 214.453125 C 154.386719 214.933594 154.53125 215.398438 154.804688 215.792969 L 175.40625 245.882812 C 175.84375 246.53125 176.582031 246.917969 177.371094 246.917969 L 196.679688 246.917969 C 197.46875 246.917969 198.207031 246.53125 198.652344 245.882812 L 219.25 215.792969 C 219.519531 215.398438 219.664062 214.933594 219.664062 214.453125 L 219.664062 179.25 C 219.664062 178.761719 219.515625 178.28125 219.234375 177.878906 L 203.84375 156.070312 L 203.84375 155.355469 L 225.808594 155.355469 L 235.910156 173.441406 C 234.449219 174.847656 233.523438 176.8125 233.523438 179 C 233.523438 183.253906 236.988281 186.714844 241.253906 186.714844 C 245.511719 186.714844 248.972656 183.253906 248.972656 179 C 248.972656 174.742188 245.511719 171.277344 241.253906 171.277344 C 240.890625 171.277344 240.554688 171.335938 240.214844 171.382812 L 229.285156 151.820312 C 228.863281 151.070312 228.070312 150.601562 227.207031 150.601562 L 203.84375 150.601562 L 203.84375 134.683594 Z M 246.59375 105.160156 C 248.230469 105.160156 249.5625 106.496094 249.5625 108.128906 C 249.5625 109.761719 248.230469 111.089844 246.59375 111.089844 C 246.261719 111.089844 245.953125 111 245.65625 110.902344 C 245.554688 110.804688 245.480469 110.683594 245.359375 110.605469 C 245.132812 110.453125 244.878906 110.375 244.628906 110.308594 C 244.023438 109.769531 243.628906 109.003906 243.628906 108.128906 C 243.628906 106.496094 244.960938 105.160156 246.59375 105.160156 Z M 239.699219 56.683594 C 241.339844 56.683594 242.667969 58.011719 242.667969 59.648438 C 242.667969 61.285156 241.335938 62.613281 239.699219 62.613281 C 238.0625 62.613281 236.738281 61.285156 236.738281 59.648438 C 236.738281 58.011719 238.0625 56.683594 239.699219 56.683594 Z M 132.109375 59.648438 C 132.109375 58.011719 133.4375 56.683594 135.074219 56.683594 C 136.707031 56.683594 138.035156 58.011719 138.035156 59.648438 C 138.035156 61.28125 136.707031 62.609375 135.074219 62.609375 C 133.4375 62.609375 132.109375 61.28125 132.109375 59.648438 Z M 125.207031 108.128906 C 125.207031 106.496094 126.542969 105.164062 128.175781 105.164062 C 129.804688 105.164062 131.144531 106.496094 131.144531 108.128906 C 131.144531 109.007812 130.742188 109.773438 130.132812 110.316406 C 129.878906 110.382812 129.636719 110.457031 129.414062 110.605469 C 129.289062 110.683594 129.210938 110.808594 129.109375 110.902344 C 128.8125 111 128.503906 111.089844 128.171875 111.089844 C 126.542969 111.089844 125.207031 109.761719 125.207031 108.128906 Z M 133.523438 181.960938 C 131.882812 181.960938 130.554688 180.632812 130.554688 179 C 130.554688 177.367188 131.886719 176.035156 133.523438 176.035156 C 135.15625 176.035156 136.484375 177.367188 136.484375 179 C 136.484375 180.632812 135.15625 181.960938 133.523438 181.960938 Z M 244.214844 179 C 244.214844 180.632812 242.882812 181.960938 241.25 181.960938 C 239.613281 181.960938 238.285156 180.632812 238.285156 179 C 238.285156 177.367188 239.613281 176.035156 241.25 176.035156 C 242.882812 176.035156 244.214844 177.367188 244.214844 179 Z M 175.6875 124.105469 L 199.082031 124.105469 L 199.082031 154.445312 L 175.6875 154.445312 Z M 174.488281 80.394531 L 180.816406 71.214844 L 193.234375 71.214844 L 199.566406 80.394531 L 199.566406 90.5 L 174.488281 90.5 Z M 167.027344 95.253906 L 207.738281 95.253906 L 207.738281 103.15625 L 199.96875 119.347656 L 174.804688 119.347656 L 167.027344 103.15625 Z M 214.910156 213.714844 L 195.429688 242.164062 L 178.625 242.164062 L 159.148438 213.714844 L 159.148438 180.03125 L 174.507812 159.199219 L 200.222656 159.199219 L 214.90625 180.003906 L 214.90625 213.714844 Z M 214.910156 213.714844 " fill-opacity="1" fill-rule="nonzero"/></g><g fill="#000000" fill-opacity="1"><g transform="translate(90.882544, 310.191162)"><g><path d="M 2.515625 -34.65625 L 13.265625 -34.65625 C 16.515625 -34.65625 19.101562 -33.957031 21.03125 -32.5625 C 22.96875 -31.175781 23.9375 -28.929688 23.9375 -25.828125 C 23.9375 -22.359375 22.492188 -19.878906 19.609375 -18.390625 C 24.535156 -17.523438 27 -14.613281 27 -9.65625 C 27 -6.75 25.988281 -4.410156 23.96875 -2.640625 C 21.957031 -0.878906 19.191406 0 15.671875 0 L 2.515625 0 Z M 10.421875 -21.078125 L 11.046875 -21.078125 C 12.804688 -21.078125 14.117188 -21.382812 14.984375 -22 C 15.859375 -22.625 16.296875 -23.632812 16.296875 -25.03125 C 16.296875 -27.382812 14.546875 -28.5625 11.046875 -28.5625 L 10.421875 -28.5625 Z M 10.421875 -6.09375 L 12.890625 -6.09375 C 16.753906 -6.09375 18.6875 -7.378906 18.6875 -9.953125 C 18.6875 -11.492188 18.203125 -12.597656 17.234375 -13.265625 C 16.273438 -13.941406 14.828125 -14.28125 12.890625 -14.28125 L 10.421875 -14.28125 Z M 10.421875 -6.09375 "/></g></g></g><g fill="#000000" fill-opacity="1"><g transform="translate(118.854535, 310.191162)"><g><path d="M 2.515625 0 L 2.515625 -36.125 L 9.953125 -36.125 L 9.953125 0 Z M 2.515625 0 "/></g></g></g><g fill="#000000" fill-opacity="1"><g transform="translate(131.328537, 310.191162)"><g><path d="M 4.546875 -2.5625 C 2.160156 -4.6875 0.96875 -7.414062 0.96875 -10.75 C 0.96875 -14.082031 2.210938 -16.816406 4.703125 -18.953125 C 7.191406 -21.097656 10.269531 -22.171875 13.9375 -22.171875 C 17.550781 -22.171875 20.597656 -21.09375 23.078125 -18.9375 C 25.554688 -16.78125 26.796875 -14.050781 26.796875 -10.75 C 26.796875 -7.445312 25.582031 -4.722656 23.15625 -2.578125 C 20.738281 -0.441406 17.664062 0.625 13.9375 0.625 C 10.070312 0.625 6.941406 -0.4375 4.546875 -2.5625 Z M 10.3125 -14.40625 C 9.34375 -13.457031 8.859375 -12.238281 8.859375 -10.75 C 8.859375 -9.269531 9.320312 -8.0625 10.25 -7.125 C 11.175781 -6.1875 12.394531 -5.71875 13.90625 -5.71875 C 15.363281 -5.71875 16.5625 -6.191406 17.5 -7.140625 C 18.4375 -8.085938 18.90625 -9.289062 18.90625 -10.75 C 18.90625 -12.238281 18.421875 -13.457031 17.453125 -14.40625 C 16.484375 -15.351562 15.300781 -15.828125 13.90625 -15.828125 C 12.476562 -15.828125 11.28125 -15.351562 10.3125 -14.40625 Z M 10.3125 -14.40625 "/></g></g></g><g fill="#000000" fill-opacity="1"><g transform="translate(159.090528, 310.191162)"><g><path d="M 13.984375 -16.09375 C 12.585938 -16.09375 11.382812 -15.570312 10.375 -14.53125 C 9.363281 -13.5 8.859375 -12.253906 8.859375 -10.796875 C 8.859375 -9.304688 9.363281 -8.039062 10.375 -7 C 11.382812 -5.96875 12.585938 -5.453125 13.984375 -5.453125 C 14.660156 -5.453125 15.296875 -5.535156 15.890625 -5.703125 C 16.492188 -5.878906 16.9375 -6.050781 17.21875 -6.21875 L 17.59375 -6.46875 L 20.125 -1.296875 C 19.925781 -1.160156 19.648438 -0.988281 19.296875 -0.78125 C 18.953125 -0.570312 18.15625 -0.285156 16.90625 0.078125 C 15.65625 0.441406 14.316406 0.625 12.890625 0.625 C 9.722656 0.625 6.941406 -0.484375 4.546875 -2.703125 C 2.160156 -4.929688 0.96875 -7.597656 0.96875 -10.703125 C 0.96875 -13.835938 2.160156 -16.53125 4.546875 -18.78125 C 6.941406 -21.039062 9.722656 -22.171875 12.890625 -22.171875 C 14.316406 -22.171875 15.628906 -22.003906 16.828125 -21.671875 C 18.035156 -21.335938 18.894531 -21 19.40625 -20.65625 L 20.125 -20.15625 L 17.59375 -15.078125 C 16.675781 -15.753906 15.472656 -16.09375 13.984375 -16.09375 Z M 13.984375 -16.09375 "/></g></g></g><g fill="#000000" fill-opacity="1"><g transform="translate(179.712528, 310.191162)"><g><path d="M 27.125 -21.546875 L 16.890625 -11.25 L 28.140625 0 L 18.5625 0 L 9.953125 -8.609375 L 9.953125 0 L 2.515625 0 L 2.515625 -36.125 L 9.953125 -36.125 L 9.953125 -14.03125 L 17.46875 -21.546875 Z M 27.125 -21.546875 "/></g></g></g><g fill="#000000" fill-opacity="1"><g transform="translate(206.844523, 310.191162)"><g><path d="M 20.125 -34.65625 L 34.109375 0 L 25.625 0 L 23.0625 -6.9375 L 9.875 -6.9375 L 7.3125 0 L -1.171875 0 L 12.8125 -34.65625 Z M 20.375 -13.859375 L 16.5 -23.9375 L 16.421875 -23.9375 L 12.5625 -13.859375 Z M 20.375 -13.859375 "/></g></g></g><g fill="#000000" fill-opacity="1"><g transform="translate(239.772515, 310.191162)"><g><path d="M 2.515625 0 L 2.515625 -21.546875 L 9.953125 -21.546875 L 9.953125 -19.28125 L 10.03125 -19.28125 C 11.96875 -21.207031 14.03125 -22.171875 16.21875 -22.171875 C 17.28125 -22.171875 18.332031 -22.03125 19.375 -21.75 C 20.425781 -21.476562 21.4375 -21.046875 22.40625 -20.453125 C 23.375 -19.867188 24.15625 -19.035156 24.75 -17.953125 C 25.351562 -16.878906 25.65625 -15.628906 25.65625 -14.203125 L 25.65625 0 L 18.234375 0 L 18.234375 -12.1875 C 18.234375 -13.300781 17.875 -14.273438 17.15625 -15.109375 C 16.445312 -15.953125 15.515625 -16.375 14.359375 -16.375 C 13.242188 -16.375 12.226562 -15.941406 11.3125 -15.078125 C 10.40625 -14.210938 9.953125 -13.25 9.953125 -12.1875 L 9.953125 0 Z M 2.515625 0 "/></g></g></g><g fill="#000000" fill-opacity="1"><g transform="translate(267.534506, 310.191162)"><g><path d="M 3.78125 -21.546875 L 3.78125 -29.5625 L 11.21875 -29.5625 L 11.21875 -21.546875 L 15.75 -21.546875 L 15.75 -15.875 L 11.21875 -15.875 L 11.21875 -9.03125 C 11.21875 -7.039062 11.773438 -6.046875 12.890625 -6.046875 C 13.171875 -6.046875 13.460938 -6.101562 13.765625 -6.21875 C 14.078125 -6.332031 14.316406 -6.441406 14.484375 -6.546875 L 14.734375 -6.71875 L 16.59375 -0.71875 C 15 0.175781 13.175781 0.625 11.125 0.625 C 9.726562 0.625 8.523438 0.378906 7.515625 -0.109375 C 6.503906 -0.597656 5.738281 -1.253906 5.21875 -2.078125 C 4.707031 -2.898438 4.335938 -3.765625 4.109375 -4.671875 C 3.890625 -5.585938 3.78125 -6.566406 3.78125 -7.609375 L 3.78125 -15.875 L 0.671875 -15.875 L 0.671875 -21.546875 Z M 3.78125 -21.546875 "/></g></g></g></svg>